{"title":"Pain And Gain 2013 720p Bluray DTS x264 SilverTorrentHD","uid":8805526,"size":3703869456,"categoryP":"video","categoryS":"hd___movies","magnet":"?xt=urn:btih:89b70259581c9b65a4d61740a1f80e956959343e&amp;dn=Pain+And+Gain+2013+720p+Bluray+DTS+x264+SilverTorrentHD&amp;tr=udp%3A%2F%2Ftracker.openbittorrent.com%3A80&amp;tr=udp%3A%2F%2Fopen.demonii.com%3A1337&amp;tr=udp%3A%2F%2Ftracker.coppersurfer.tk%3A6969&amp;tr=udp%3A%2F%2Fexodus.desync.com%3A6969","seeders":1,"leechers":1,"uploader":"AliBaloch","files":-1,"time":1376319797,"description":" &lt;a href=&quot;http://i874.photobucket.com/albums/ab306/worldwide7477/Custom%20Covers/Pain-And-Gain-2013-Custom-Movie-Cover-Worldwide7477_zpsf9f6d664.png&quot; rel=&quot;nofollow&quot; target=&quot;_NEW&quot;&gt;http://i874.photobucket.com/albums/ab306/worldwide7477/Custom%20Covers/Pain-And-Gain-2013-Custom-Movie-Cover-Worldwide7477_zpsf9f6d664.png&lt;/a&gt;\n\n\nComplete name                            : C:UsersUserVideosPain And Gain 2013 720p Bluray DTS x264 SilverTorrentHDPain And Gain 2013 720p Bluray DTS x264 SilverTorrentHD.mkv\nFormat                                   : Matroska\nFormat version                           : Version 4 / Version 2\nFile size                                : 3.40 GiB\nDuration                                 : 2h 9mn\nOverall bit rate                         : 3 754 Kbps\nMovie name                               : Pain And Gain (2013) Encoder Worldwide7477\n\nVideo\nID                                       : 1\nFormat                                   : AVC\nFormat/Info                              : Advanced Video Codec\nFormat profile                           : &lt;a class=&quot;__cf_email__&quot; href=&quot;/cdn-cgi/l/email-protection&quot; data-cfemail=&quot;4c04252b240c0078627d&quot;&gt;[email&amp;#160;protected]&lt;/a&gt;&lt;script cf-hash='f9e31' type=&quot;text/javascript&quot;&gt;\n/* &lt;![CDATA[ */!function(){try{var t=&quot;currentScript&quot;in document?document.currentScript:function(){for(var t=document.getElementsByTagName(&quot;script&quot;),e=t.length;e--;)if(t[e].getAttribute(&quot;cf-hash&quot;))return t[e]}();if(t&amp;&amp;t.previousSibling){var e,r,n,i,c=t.previousSibling,a=c.getAttribute(&quot;data-cfemail&quot;);if(a){for(e=&quot;&quot;,r=parseInt(a.substr(0,2),16),n=2;a.length-n;n+=2)i=parseInt(a.substr(n,2),16)^r,e+=String.fromCharCode(i);e=document.createTextNode(e),c.parentNode.replaceChild(e,c)}}}catch(u){}}();/* ]]&gt; */&lt;/script&gt;\nFormat settings, CABAC                   : Yes\nFormat settings, ReFrames                : 4 frames\nCodec ID                                 : V_MPEG4/ISO/AVC\nDuration                                 : 2h 9mn\nBit rate                                 : 2 999 Kbps\nWidth                                    : 1 280 pixels\nHeight                                   : 536 pixels\nDisplay aspect ratio                     : 2.40:1\nFrame rate mode                          : Constant\nFrame rate                               : 23.976 fps\nColor space                              : YUV\nChroma subsampling                       : 4:2:0\nBit depth                                : 8 bits\nStream size                              : 2.65 GiB (78%)\nTitle                                    : Pain And Gain 2013 720p Bluray DTS x264 SilverTorrentHD\nLanguage                                 : English\nDefault                                  : Yes\nForced                                   : No\n\nAudio\nID                                       : 2\nFormat                                   : DTS\nFormat/Info                              : Digital Theater Systems\nMode                                     : 16\nFormat settings, Endianness              : Big\nCodec ID                                 : A_DTS\nDuration                                 : 2h 9mn\nBit rate mode                            : Constant\nBit rate                                 : 755 Kbps\nChannel(s)                               : 6 channels\nChannel positions                        : Front: L C R, Side: L R, LFE\nSampling rate                            : 48.0 KHz\nBit depth                                : 24 bits\nCompression mode                         : Lossy\nStream size                              : 699 MiB (20%)\nTitle                                    : Worldwide7477 (DTS)\nLanguage                                 : English\nDefault                                  : Yes\nForced                                   : No\n\nText\nID                                       : 3\nFormat                                   : UTF-8\nCodec ID                                 : S_TEXT/UTF8\nCodec ID/Info                            : UTF-8 Plain Text\nTitle                                    : Worldwide7477\nLanguage                                 : English\nDefault                                  : Yes\nForced                                   : No\n\n &lt;a href=&quot;\nhttp://img692.imageshack.us/img692/2149/lmg1.png&quot; rel=&quot;nofollow&quot; target=&quot;_NEW&quot;&gt;\nhttp://img692.imageshack.us/img692/2149/lmg1.png&lt;/a&gt;\n &lt;a href=&quot;\nhttp://img607.imageshack.us/img607/7233/lgao.png&quot; rel=&quot;nofollow&quot; target=&quot;_NEW&quot;&gt;\nhttp://img607.imageshack.us/img607/7233/lgao.png&lt;/a&gt;\n &lt;a href=&quot;\nhttp://img35.imageshack.us/img35/4950/fxqq.png&quot; rel=&quot;nofollow&quot; target=&quot;_NEW&quot;&gt;\nhttp://img35.imageshack.us/img35/4950/fxqq.png&lt;/a&gt;\n &lt;a href=&quot;\nhttp://img404.imageshack.us/img404/9505/u9vv.png&quot; rel=&quot;nofollow&quot; target=&quot;_NEW&quot;&gt;\nhttp://img404.imageshack.us/img404/9505/u9vv.png&lt;/a&gt;\n &lt;a href=&quot;\nhttp://img199.imageshack.us/img199/8862/5rse.png&quot; rel=&quot;nofollow&quot; target=&quot;_NEW&quot;&gt;\nhttp://img199.imageshack.us/img199/8862/5rse.png&lt;/a&gt;\n &lt;a href=&quot;\nhttp://img196.imageshack.us/img196/8107/lrsf.png&quot; rel=&quot;nofollow&quot; target=&quot;_NEW&quot;&gt;\nhttp://img196.imageshack.us/img196/8107/lrsf.png&lt;/a&gt;","torrent":{"xt":"urn:btih:89b70259581c9b65a4d61740a1f80e956959343e","amp;dn":"Pain+And+Gain+2013+720p+Bluray+DTS+x264+SilverTorrentHD","amp;tr":["udp%3A%2F%2Ftracker.openbittorrent.com%3A80","udp%3A%2F%2Fopen.demonii.com%3A1337","udp%3A%2F%2Ftracker.coppersurfer.tk%3A6969","udp%3A%2F%2Fexodus.desync.com%3A6969"],"infoHash":"89b70259581c9b65a4d61740a1f80e956959343e","infoHashBuffer":{"type":"Buffer","data":[137,183,2,89,88,28,155,101,164,214,23,64,161,248,14,149,105,89,52,62]},"announce":[],"urlList":[]}}